<svg width="32" height="32" viewBox="0 0 100 100" fill="none" xmlns="http://www.w3.org/2000/svg">
<rect width="100" height="100" rx="30" fill="#4CAF50"/>
<path d="M30.8262 54.2927H22.4574V49.0143H30.8262C32.1195 49.0143 33.1722 48.8038 33.9843 48.3827C34.7963 47.9466 35.3903 47.345 35.7663 46.5781C36.1422 45.8111 36.3302 44.9464 36.3302 43.984C36.3302 43.0065 36.1422 42.0967 35.7663 41.2546C35.3903 40.4124 34.7963 39.7357 33.9843 39.2244C33.1722 38.7131 32.1195 38.4574 30.8262 38.4574H24.8034V66H18.0362V33.1565H30.8262C33.3978 33.1565 35.6009 33.6226 37.4355 34.555C39.2852 35.4723 40.6988 36.7431 41.6763 38.3672C42.6538 39.9913 43.1426 41.8486 43.1426 43.9389C43.1426 46.0593 42.6538 47.8939 41.6763 49.4429C40.6988 50.9918 39.2852 52.1874 37.4355 53.0295C35.6009 53.8716 33.3978 54.2927 30.8262 54.2927ZM53.9024 46.6458V66H47.3833V41.5929H53.4964L53.9024 46.6458ZM53.0001 52.9393H51.1955C51.1955 51.24 51.3986 49.676 51.8046 48.2473C52.2257 46.8037 52.8347 45.5555 53.6317 44.5028C54.4438 43.4351 55.4438 42.608 56.6319 42.0215C57.8199 41.435 59.1959 41.1418 60.7599 41.1418C61.8426 41.1418 62.8351 41.3072 63.7374 41.638C64.6397 41.9538 65.4142 42.4576 66.0609 43.1494C66.7225 43.8261 67.2338 44.7134 67.5948 45.8111C67.9557 46.8939 68.1361 48.1947 68.1361 49.7136V66H61.6396V50.4354C61.6396 49.3226 61.4892 48.4654 61.1885 47.8639C60.8877 47.2623 60.4591 46.8413 59.9027 46.6007C59.3613 46.36 58.7071 46.2397 57.9402 46.2397C57.0981 46.2397 56.3612 46.4127 55.7296 46.7586C55.113 47.1044 54.6017 47.5857 54.1957 48.2022C53.7896 48.8038 53.4889 49.5106 53.2934 50.3226C53.0979 51.1347 53.0001 52.0069 53.0001 52.9393ZM67.5271 52.1949L65.2037 52.4881C65.2037 50.8941 65.3992 49.4128 65.7902 48.0443C66.1962 46.6758 66.7902 45.4728 67.5722 44.4351C68.3692 43.3975 69.3542 42.593 70.5272 42.0215C71.7002 41.435 73.0536 41.1418 74.5875 41.1418C75.7605 41.1418 76.8282 41.3147 77.7907 41.6606C78.7531 41.9914 79.5727 42.5253 80.2494 43.2622C80.9412 43.984 81.4675 44.9314 81.8285 46.1044C82.2044 47.2774 82.3924 48.7135 82.3924 50.4129V66H75.8733V50.4129C75.8733 49.285 75.7229 48.4278 75.4222 47.8413C75.1364 47.2398 74.7154 46.8262 74.159 46.6007C73.6176 46.36 72.9709 46.2397 72.219 46.2397C71.437 46.2397 70.7528 46.3976 70.1663 46.7134C69.5798 47.0142 69.0911 47.4353 68.7001 47.9767C68.3091 48.518 68.0158 49.1496 67.8203 49.8715C67.6248 50.5783 67.5271 51.3527 67.5271 52.1949Z" fill="white"/>
</svg>
